<?xml version="1.0" encoding="iso-8859-1"?>
<!-- Generator: Adobe Illustrator 19.0.0, SVG Export Plug-In . SVG Version: 6.00 Build 0)  -->
<svg version="1.1" id="Layer_1" xmlns="http://www.w3.org/2000/svg" xmlns:xlink="http://www.w3.org/1999/xlink" x="0px" y="0px" viewBox="0 0 481.04 481.04" style="enable-background:new 0 0 481.04 481.04;" xml:space="preserve">
<rect x="127.04" y="240.68" style="fill:#F9FDFE;" width="224" height="232"/>
<rect x="127.04" y="240.68" style="fill:#E7EDEF;" width="24" height="232"/>
<path style="fill:#132C47;" d="M351.04,232.68h-224c-4.424,0-8,3.584-8,8v216c0,13.232,10.768,24,24,24h192
	c13.232,0,24-10.768,24-24v-216C359.04,236.264,355.464,232.68,351.04,232.68z M343.04,456.68c0,4.408-3.584,8-8,8h-192
	c-4.416,0-8-3.592-8-8v-24h184c4.424,0,8-3.584,8-8s-3.576-8-8-8h-16v-48c0-4.416-3.576-8-8-8s-8,3.584-8,8v48h-40v-48
	c0-4.416-3.576-8-8-8s-8,3.584-8,8v48h-40v-48c0-4.416-3.576-8-8-8s-8,3.584-8,8v48h-40v-168h208V456.68z"/>
<path style="fill:#F9FDFE;" d="M239.2,8.36c42.32,0,80.08,19.2,105.04,49.28c7.84-1.84,15.92-2.96,24.32-2.96
	c57.68,0,104.48,46.8,104.48,104.48c0,57.76-46.8,104.56-104.48,104.56c-17.2,0-33.36-4.24-47.68-11.6
	c-22.8,17.04-50.96,27.2-81.68,27.2c-30.24,0-58-9.92-80.64-26.48c-13.84,6.88-29.44,10.88-46,10.88C54.8,263.72,8,216.92,8,159.16
	C8,101.48,54.8,54.68,112.56,54.68c7.6,0,14.96,0.88,22.08,2.4c0.08-0.08,0.16-0.16,0.16-0.24C159.92,27.24,197.28,8.36,239.2,8.36z
	"/>
<path style="fill:#E7EDEF;" d="M30,175.48C30,117.8,76.8,71,134.56,71c7.6,0,14.96,0.88,22.08,2.4c0.08-0.08,0.16-0.16,0.16-0.24
	c25.12-29.6,62.48-48.48,104.4-48.48c25.472,0,49.224,7.056,69.6,19.152C306.616,21.88,274.56,8.36,239.2,8.36
	c-41.92,0-79.28,18.88-104.4,48.48c0,0.08-0.08,0.16-0.16,0.24c-7.12-1.52-14.48-2.4-22.08-2.4C54.8,54.68,8,101.48,8,159.16
	c0,39.4,21.8,73.672,53.984,91.496C42.288,231.648,30,205.024,30,175.48z"/>
<path style="fill:#132C47;" d="M368.56,46.68c-6.992,0-14.016,0.704-21.352,2.136C319.808,17.96,280.72,0.36,239.2,0.36
	c-41.088,0-80.048,17.432-107.592,47.992c-6.432-1.112-12.816-1.672-19.048-1.672C50.488,46.68,0,97.136,0,159.16
	c0,62.064,50.496,112.56,112.56,112.56c15.648,0,30.832-3.248,45.184-9.656c24.192,16.544,52.248,25.256,81.448,25.256
	c29.728,0,58.144-8.944,82.488-25.912c14.832,6.84,30.568,10.312,46.88,10.312c62.024,0,112.48-50.496,112.48-112.56
	C481.04,97.136,430.584,46.68,368.56,46.68z M368.56,255.72c-15.384,0-30.192-3.608-44.024-10.712
	c-2.704-1.392-5.992-1.12-8.448,0.704c-22.424,16.752-49.016,25.608-76.896,25.608c-27.36,0-53.608-8.624-75.904-24.936
	c-1.4-1.016-3.056-1.544-4.728-1.544c-1.208,0-2.432,0.28-3.56,0.832c-13.408,6.664-27.688,10.04-42.44,10.04
	c-53.24,0-96.56-43.32-96.56-96.56c0-53.2,43.32-96.48,96.56-96.48c6.592,0,13.416,0.744,20.296,2.208
	c7.872,4.392,36.304,22.496,34.048,53.864c-0.32,4.408,3,8.24,7.408,8.552c0.192,0.008,0.384,0.016,0.576,0.016
	c4.16,0,7.672-3.216,7.968-7.424c2.44-33.84-21.584-55.28-35.448-64.752C171.64,30.472,204.512,16.36,239.2,16.36
	c34.832,0,67.64,14.04,91.712,38.648c-13.808,9.12-38.544,30.448-36.088,65.192c0.296,4.216,3.808,7.44,7.968,7.44
	c0.184,0,0.384-0.008,0.568-0.016c4.408-0.312,7.728-4.136,7.416-8.544c-2.184-31.024,24.952-48.736,33.408-53.48
	c0.624,0.008,1.256-0.024,1.888-0.168c7.88-1.848,15.232-2.752,22.496-2.752c53.192,0,96.48,43.28,96.48,96.48
	C465.04,212.4,421.76,255.72,368.56,255.72z"/>
<g>
</g>
<g>
</g>
<g>
</g>
<g>
</g>
<g>
</g>
<g>
</g>
<g>
</g>
<g>
</g>
<g>
</g>
<g>
</g>
<g>
</g>
<g>
</g>
<g>
</g>
<g>
</g>
<g>
</g>
</svg>
